Coordinates
version=1
nRows=20
nColumns=38
inDegrees=no

Units are S.I. units (second, meters, Newtons, ...)
If the header above contains a line with 'inDegrees', this indicates whether rotational values are in degrees (yes) or radians (no).

endheader
time	pelvis_tilt	pelvis_list	pelvis_rotation	pelvis_tx	pelvis_ty	pelvis_tz	hip_flexion_r	hip_adduction_r	hip_rotation_r	knee_angle_r	ankle_angle_r	subtalar_angle_r	mtp_angle_r	hip_flexion_l	hip_adduction_l	hip_rotation_l	knee_angle_l	ankle_angle_l	subtalar_angle_l	mtp_angle_l	lumbar_extension	lumbar_bending	lumbar_rotation	arm_flex_r	arm_add_r	arm_rot_r	elbow_flex_r	pro_sup_r	wrist_flex_r	wrist_dev_r	arm_flex_l	arm_add_l	arm_rot_l	elbow_flex_l	pro_sup_l	wrist_flex_l	wrist_dev_l
105	-2.63939	1.44826	-2.00785	0.698116	0.319532	1.06325	-0.120112	-0.131231	-0.0777557	0.65294	-0.251603	0	0	0.0818935	0.0273557	-0.0661691	0.178264	-0.33003	0	0	-0.325022	-0.173339	0.0302489	0.522939	-0.299357	0.326428	1.35586	1.5708	0	0	0.405645	0.0264211	-0.0352644	1.40699	1.5708	0	0
105.01	-2.65276	1.44938	-1.9962	0.701726	0.311884	1.06288	-0.122687	-0.125477	-0.089273	0.63458	-0.248252	0	0	0.0851972	0.0226374	-0.0619329	0.169204	-0.339088	0	0	-0.328834	-0.170519	0.032308	0.530019	-0.297494	0.328741	1.35659	1.5708	0	0	0.410311	0.0278465	-0.042045	1.40754	1.5708	0	0
105.02	-2.66626	1.45175	-1.98414	0.705296	0.304215	1.06251	-0.123369	-0.119002	-0.099142	0.616759	-0.241302	0	0	0.0902113	0.0172576	-0.0587036	0.161751	-0.340279	0	0	-0.331636	-0.167351	0.0348181	0.5364	-0.296093	0.330739	1.35776	1.5708	0	0	0.415226	0.0294589	-0.0481074	1.40761	1.5708	0	0
105.03	-2.68177	1.45459	-1.96987	0.708776	0.296429	1.06222	-0.122798	-0.111976	-0.107033	0.599868	-0.233434	0	0	0.095853	0.0116426	-0.0560744	0.155107	-0.337579	0	0	-0.334593	-0.163974	0.0372511	0.543034	-0.294983	0.332699	1.35906	1.5708	0	0	0.420553	0.0313195	-0.0540264	1.40761	1.5708	0	0
105.04	-2.70212	1.4576	-1.95065	0.712189	0.288544	1.06204	-0.121366	-0.103991	-0.112358	0.5839	-0.225951	0	0	0.101674	0.00557406	-0.0542709	0.149322	-0.332119	0	0	-0.338073	-0.1603	0.0396981	0.549951	-0.294053	0.334846	1.36031	1.5708	0	0	0.426421	0.033462	-0.0598299	1.40733	1.5708	0	0
105.05	-2.72569	1.46075	-1.92813	0.715561	0.280582	1.06197	-0.119151	-0.0951373	-0.115047	0.568405	-0.219442	0	0	0.107495	-0.000658331	-0.0528787	0.143612	-0.324946	0	0	-0.341919	-0.156618	0.0422514	0.557058	-0.293348	0.33698	1.36139	1.5708	0	0	0.432804	0.0357079	-0.0653809	1.40677	1.5708	0	0
105.06	-2.74953	1.46415	-1.9053	0.718877	0.272569	1.06201	-0.115876	-0.0861514	-0.115795	0.553583	-0.214323	0	0	0.113212	-0.00660527	-0.0511642	0.137256	-0.316898	0	0	-0.345903	-0.153214	0.0448901	0.564165	-0.292764	0.338597	1.36253	1.5708	0	0	0.439527	0.0381399	-0.0707431	1.40618	1.5708	0	0
105.07	-2.77407	1.46729	-1.88171	0.722107	0.264568	1.06218	-0.112034	-0.0776713	-0.115604	0.54001	-0.21069	0	0	0.119254	-0.0125491	-0.0518816	0.132667	-0.308003	0	0	-0.350207	-0.150293	0.0476253	0.571024	-0.2924	0.3399	1.36392	1.5708	0	0	0.446453	0.0408302	-0.0759638	1.40556	1.5708	0	0
105.08	-2.80392	1.47052	-1.85244	0.725208	0.256619	1.06248	-0.107945	-0.0689702	-0.114428	0.526251	-0.207311	0	0	0.126266	-0.0190874	-0.0548178	0.1314	-0.28484	0	0	-0.354865	-0.147635	0.0531055	0.573542	-0.293158	0.335218	1.36951	1.5708	0	0	0.45519	0.0455815	-0.0787609	1.40265	1.5708	0	0
105.09	-2.60046	1.5203	-2.05816	0.727583	0.252202	1.05921	-0.0485876	-0.0611128	-0.107307	0.521074	-0.210035	0	0	0.184586	-0.0252139	-0.0563683	0.131754	-0.2701	0	0	-0.13339	-0.0638842	0.355763	0.301795	-0.408386	0.0741499	1.37939	1.5708	0	0	0.990254	-0.0394844	1.26468	0.662483	1.5708	0	0
105.1	-2.68024	1.51937	-1.9774	0.730337	0.244049	1.06012	-0.0472203	-0.0546269	-0.110095	0.512966	-0.211259	0	0	0.186945	-0.0307391	-0.0606205	0.131018	-0.264612	0	0	-0.142654	-0.0587846	0.350261	0.317798	-0.407487	0.0858235	1.37366	1.5708	0	0	0.995475	-0.0442162	1.26167	0.661148	1.5708	0	0
105.11	-2.91693	1.46724	-1.73579	0.733351	0.232283	1.06528	-0.103789	-0.0476825	-0.121217	0.495938	-0.217524	0	0	0.136111	-0.0366001	-0.0669916	0.131073	-0.256164	0	0	-0.379438	-0.128286	0.0463442	0.610609	-0.284736	0.357419	1.35727	1.5708	0	0	0.47469	0.0505857	-0.107633	1.39811	1.5708	0	0
105.12	-2.94791	1.46542	-1.70176	0.735625	0.224274	1.06648	-0.102003	-0.0418804	-0.125493	0.488074	-0.220999	0	0	0.140114	-0.0416421	-0.0705498	0.133211	-0.252856	0	0	-0.387588	-0.119982	0.0409266	0.624624	-0.280057	0.366987	1.34999	1.5708	0	0	0.47992	0.0510957	-0.118984	1.39613	1.5708	0	0
105.13	-2.98294	1.46095	-1.66232	0.737635	0.216264	1.06805	-0.104429	-0.0355939	-0.130647	0.476444	-0.231385	0	0	0.143394	-0.0473132	-0.0755541	0.140745	-0.242079	0	0	-0.398388	-0.10911	0.0306822	0.643634	-0.272782	0.383022	1.33806	1.5708	0	0	0.483206	0.0504902	-0.135073	1.39659	1.5708	0	0
105.14	-2.96237	1.49723	-1.67975	0.739245	0.211434	1.06638	-0.0612123	-0.0318821	-0.131861	0.473561	-0.235982	0	0	0.189771	-0.0509125	-0.0778311	0.150972	-0.237294	0	0	-0.214266	-0.0395016	0.266095	0.442958	-0.383144	0.199757	1.32397	1.5708	0	0	0.988182	-0.180446	1.17371	0.821312	1.5708	0	0
105.15	-3.01936	1.45186	-1.61533	0.741146	0.200553	1.07128	-0.10705	-0.0270705	-0.143788	0.460356	-0.244758	0	0	0.151994	-0.0550515	-0.081935	0.160728	-0.237454	0	0	-0.417137	-0.0896206	0.0100723	0.678003	-0.257263	0.411659	1.31255	1.5708	0	0	0.490427	0.0480623	-0.163133	1.39279	1.5708	0	0
105.16	-3.03441	1.4379	-1.59344	0.742483	0.19217	1.07367	-0.119346	-0.0230827	-0.152962	0.448678	-0.260866	0	0	0.149296	-0.0587114	-0.0862139	0.179255	-0.246215	0	0	-0.433702	-0.0729087	-0.0118974	0.714317	-0.242836	0.450118	1.28031	1.5708	0	0	0.490901	0.0384794	-0.184743	1.39309	1.5708	0	0
105.17	-3.03051	1.43409	-1.59131	0.743887	0.184515	1.07527	-0.118879	-0.0213024	-0.159212	0.442539	-0.265686	0	0	0.155656	-0.0596277	-0.0849262	0.19653	-0.251722	0	0	-0.442865	-0.0706618	-0.0214132	0.724856	-0.235536	0.45607	1.27137	1.5708	0	0	0.492846	0.00241635	-0.153772	1.39724	1.5708	0	0
105.18	-3.02008	1.43257	-1.59636	0.745268	0.177194	1.07677	-0.115336	-0.0205548	-0.163459	0.438051	-0.269	0	0	0.162518	-0.0589199	-0.0800931	0.212786	-0.256366	0	0	-0.44915	-0.069958	-0.0280164	0.731175	-0.230424	0.458337	1.26559	1.5708	0	0	0.495461	-0.0183645	-0.136228	1.39861	1.5708	0	0
105.19	-2.99171	1.44351	-1.61864	0.74675	0.170883	1.07743	-0.0988841	-0.0213044	-0.167204	0.433101	-0.278617	0	0	0.184727	-0.056353	-0.0764824	0.238755	-0.266132	0	0	-0.439641	-0.0715396	-0.0231895	0.717919	-0.230888	0.439447	1.27214	1.5708	0	0	0.508157	0.0354506	-0.184182	1.37436	1.5708	0	0
